<?xml version="1.0" encoding="utf-8"?>
<!-- Generator: Adobe Illustrator 16.0.0, SVG Export Plug-In . SVG Version: 6.00 Build 0)  -->
<!DOCTYPE svg PUBLIC "-//W3C//DTD SVG 1.1//EN" "http://www.w3.org/Graphics/SVG/1.1/DTD/svg11.dtd">
<svg version="1.1" id="Layer_1" xmlns="http://www.w3.org/2000/svg" xmlns:xlink="http://www.w3.org/1999/xlink" x="0px" y="0px"
	 width="125px" height="29px" viewBox="0 0 125 29" enable-background="new 0 0 125 29" xml:space="preserve">
<g>
	<g>
		<g>
			<path fill="#FFFFFF" stroke="#FFFFFF" stroke-miterlimit="10" d="M36.394,1.992c0,0,8.951,0,8.958,0
				c1.969,0,4.108-0.243,5.907,0.68c1.454,0.746,2.376,2.151,2.671,3.761c0.121,0.66-0.03-1-0.006-0.331
				c0.04,1.095,0.278,2.418-0.276,3.425c-0.282,0.511-0.82,0.739-1.379,0.746c-0.782,0.01-1.624-0.473-1.82-1.268
				c-0.04-0.162-0.035-0.351-0.048-0.518c-0.017-0.224-0.017-0.463-0.121-0.668c-0.087-0.171-0.247-0.289-0.418-0.366
				c-0.386-0.175-0.823-0.292-1.245-0.339c-0.263-0.029-0.533-0.036-0.797-0.04c-0.583-0.01-1.165-0.002-1.747,0.004
				c-0.23,0.002-0.46,0.009-0.689,0.009h-3.506v16.819c0,2.087-0.255,3.131-2.322,3.131c-2.087,0-3.13-0.267-3.13-3.52L36.394,1.992
				z"/>
			<path fill="#FFFFFF" stroke="#FFFFFF" stroke-miterlimit="10" d="M39.555,28.105c-2.659,0-4.199-0.751-4.199-4.588L35.323,0.923
				h10.029c0.33,0,0.665-0.007,1.003-0.014c0.357-0.007,0.718-0.015,1.078-0.015c1.336,0,2.895,0.098,4.314,0.826
				c1.388,0.711,2.432,1.952,2.963,3.485c0.337,0.401,0.337,1.053,0.337,1.328c0,0.069-0.004,0.124-0.008,0.162l-0.006,0.051
				c0.068,1.001,0.138,2.232-0.449,3.298c-0.441,0.801-1.301,1.287-2.302,1.299h-0.037c-1.344,0-2.537-0.875-2.834-2.081
				c-0.054-0.218-0.063-0.418-0.069-0.579c-0.002-0.039-0.003-0.077-0.006-0.114l-0.008-0.113c-0.001-0.021-0.003-0.046-0.004-0.07
				c-0.261-0.106-0.547-0.178-0.826-0.209c-0.211-0.024-0.44-0.029-0.696-0.034c-0.517-0.009-1.034-0.003-1.551,0.003l-0.424,0.005
				c-0.148,0.002-0.296,0.005-0.443,0.005h-2.437v15.75C42.946,25.477,42.946,28.105,39.555,28.105z M37.464,3.062l0.03,20.454
				c0,1.486,0.235,2.011,0.432,2.189c0.24,0.218,0.825,0.262,1.629,0.262c1.037,0,1.253,0,1.253-2.061V6.018h4.575
				c0.136,0,0.271-0.002,0.407-0.004l0.437-0.006c0.537-0.006,1.074-0.012,1.611-0.002c0.3,0.005,0.595,0.012,0.899,0.046
				c0.542,0.062,1.084,0.209,1.566,0.428c0.42,0.191,0.742,0.487,0.929,0.854c0.189,0.372,0.213,0.742,0.229,0.986l0.006,0.087
				c0.004,0.059,0.007,0.12,0.01,0.181c0.002,0.056,0.006,0.14,0.012,0.168c0.058,0.235,0.413,0.448,0.756,0.448
				c0.142-0.002,0.376-0.029,0.466-0.193c0.296-0.539,0.239-1.375,0.184-2.184l-0.012-0.179c-0.001-0.007-0.002-0.015-0.004-0.023
				c-0.247-1.348-1.015-2.443-2.107-3.003c-1.012-0.519-2.203-0.59-3.338-0.59c-0.345,0-0.69,0.007-1.033,0.014
				c-0.353,0.008-0.704,0.015-1.048,0.015H37.464z"/>
		</g>
	</g>
	<g>
		<g>
			<path fill="#FFFFFF" stroke="#FFFFFF" stroke-miterlimit="10" d="M95.146,1.95c0.721,0,1.699,0.059,2.191,0.75
				c0.461,0.646,0.541,1.963,0.457,2.754c-0.047,0.429-0.289,1.177-0.654,1.401c-0.629,0.383-1.594,0.327-2.289,0.346
				c-0.371,0.01-0.74-0.054-1.107-0.046C92.595,7.18,91.44,7.163,90.29,7.155c-1.381-0.008-2.764-0.003-4.145-0.005
				c-1.209-0.001-2.418-0.003-3.625,0.003c-0.578,0.002-1.156,0.009-1.734,0.001c-0.002,0-0.025,0-0.025-0.001c0,0,0-3.522,0-3.522
				c4.73,3.004,7.922,4.739,8.406,5.203c0.475,0.464,0.711,1.295,0.711,2.491c0,1.375-0.014,2.75,0.002,4.125
				c0.027,2.303-0.08,4.615-0.027,6.915c0.021,0.937,0.172,2.342-0.213,3.409c-0.188,0.517-0.695,1.116-1.209,1.236
				c-0.164,0.039-1.85,0.051-2.047,0.031c-1.396-0.147-1.744-1.557-1.742-3.174c0-0.424-0.002-0.847-0.002-1.27
				c0-2.373,0-4.746,0-7.119c0-0.772-0.02-1.544-0.016-2.316c0.01-2.316-3.269-3.422-4.742-3.842
				c-0.748-0.213-1.504-0.399-2.252-0.617c-0.686-0.199-1.674-0.415-1.677-1.44c-0.001-0.665-0.001-0.905,0.013-1.569
				c0.004-0.15,0.01-0.301,0.01-0.452V4.368c0-1.124,0.604-1.93,1.811-2.418C77.786,1.95,95.085,1.95,95.146,1.95z"/>
			<path fill="#FFFFFF" stroke="#FFFFFF" stroke-miterlimit="10" d="M86.952,28.119c-0.527,0-0.625-0.01-0.68-0.016
				c-1.232-0.129-2.703-0.97-2.701-4.237V19.93c0-1.484,0-2.967,0-4.451c0-0.354-0.004-0.708-0.008-1.062
				c-0.006-0.42-0.012-0.839-0.01-1.259c0.006-1.065-1.439-2.089-3.965-2.809c-0.348-0.099-0.695-0.192-1.045-0.285
				c-0.396-0.105-0.806-0.215-1.213-0.333l-0.117-0.033C76.519,9.5,74.89,9.037,74.886,7.266V7.228
				c-0.004-0.631-0.004-0.892,0.012-1.557l0.004-0.16c0.003-0.089,0.006-0.179,0.006-0.269V4.368c0-1.098,0.43-2.58,2.479-3.41
				l0.193-0.078h17.566c0.66,0,2.209,0,3.063,1.198c0.703,0.987,0.738,2.658,0.648,3.49c-0.008,0.065-0.186,1.604-1.16,2.198
				c-0.785,0.479-1.736,0.489-2.504,0.498c-0.107,0.001-0.213,0.002-0.313,0.005c-0.238,0.007-0.473-0.01-0.674-0.025
				c-0.143-0.011-0.277-0.021-0.396-0.021l-0.041,0c-0.42,0.009-0.879,0.013-1.398,0.013c-0.486,0-0.973-0.003-1.459-0.008
				l-0.629-0.005c-0.074,0-0.148,0-0.223,0c0.6,0.69,0.889,1.706,0.889,3.101c0,0.455-0.002,0.909-0.004,1.362
				c-0.002,0.903-0.006,1.836,0.004,2.75c0.014,1.066-0.002,2.146-0.018,3.188c-0.02,1.223-0.037,2.486-0.01,3.715
				c0.004,0.157,0.012,0.328,0.018,0.508c0.043,0.984,0.096,2.209-0.295,3.289c-0.275,0.764-1.01,1.689-1.967,1.914
				C88.591,28.071,88.388,28.119,86.952,28.119z M86.483,25.977c0.043,0.001,0.184,0.004,0.469,0.004
				c0.531,0,1.055-0.01,1.256-0.021c0.117-0.066,0.342-0.316,0.426-0.549c0.246-0.683,0.203-1.674,0.17-2.471
				c-0.01-0.195-0.018-0.381-0.021-0.551c-0.027-1.27-0.008-2.554,0.01-3.795c0.016-1.029,0.031-2.094,0.02-3.133
				c-0.012-0.93-0.008-1.872-0.006-2.782c0.002-0.451,0.004-0.903,0.004-1.354c0-1.183-0.26-1.592-0.381-1.718
				c-0.207-0.176-1.168-0.755-2.225-1.387h-0.061c-1.205-0.002-2.412-0.003-3.619,0.003l-0.342,0.002
				c-0.471,0.002-0.941,0.005-1.41,0c-0.671,0-1.08-0.545-1.08-1.071V3.019h-1.684c-0.844,0.397-0.963,0.902-0.963,1.35v0.875
				c0,0.111-0.004,0.223-0.007,0.333l-0.005,0.143c-0.014,0.637-0.012,0.873-0.012,1.503v0.039c0,0.052,0.008,0.072,0.008,0.072
				c0.08,0.111,0.563,0.248,0.768,0.307l0.129,0.037c0.385,0.111,0.784,0.218,1.169,0.32c0.36,0.096,0.72,0.192,1.079,0.294
				c4.572,1.304,5.523,3.371,5.518,4.875c-0.002,0.408,0.004,0.815,0.008,1.223c0.004,0.363,0.01,0.726,0.01,1.089
				c0,1.484,0,2.967,0,4.451v3.938C85.71,25.854,86.259,25.951,86.483,25.977z M93.81,6.084c0.197,0,0.389,0.015,0.557,0.028
				c0.145,0.01,0.281,0.021,0.402,0.021l0.053-0.001c0.109-0.003,0.227-0.004,0.348-0.006c0.447-0.005,1.049-0.011,1.355-0.154
				c0.078-0.125,0.184-0.423,0.207-0.633c0.08-0.749-0.045-1.711-0.266-2.019c-0.215-0.301-1.047-0.301-1.32-0.301H81.794
				c2.018,1.273,3.762,2.321,5.002,3.063h1.299c0.734,0,1.469,0,2.201,0.005l0.633,0.004c0.48,0.004,0.961,0.008,1.441,0.008
				c0.504,0,0.947-0.004,1.35-0.013C93.749,6.084,93.78,6.084,93.81,6.084z M81.831,5.564v0.523c0.111,0,0.225-0.001,0.338-0.002
				l0.348-0.001c0.051,0,0.1,0,0.152-0.001C82.397,5.916,82.118,5.743,81.831,5.564z"/>
		</g>
	</g>
	<g>
		<path fill-rule="evenodd" clip-rule="evenodd" fill="#FFFFFF" stroke="#FFFFFF" stroke-miterlimit="10" d="M1.968,1.959
			C2.616,1.784,3.29,1.829,3.953,1.831c0.5,0.001,1.041-0.01,1.518,0.162c0.685,0.247,1.053,0.919,1.053,1.625
			c0.003,3.068-0.001,5.552,0.006,8.619c0,0.425,0.051,0.85,0.078,1.275c0.099,0.015,0.196,0.029,0.294,0.043
			c0.368-1.095,0.741-2.189,1.103-3.288C8.691,8.178,9.352,6.08,10.06,3.999c0.457-1.34,1.374-1.984,2.777-2.031
			c0.523-0.019,1.047-0.013,1.571-0.004c1.66,0.029,2.544,0.649,3.078,2.25c0.978,2.936,1.919,5.883,2.879,8.825
			c0.064,0.197,0.161,0.384,0.447,0.56c0.042-0.426,0.119-0.852,0.12-1.277c0.01-3.067,0.034-5.747-0.011-8.813
			c-0.014-0.884,0.667-1.595,1.539-1.558c1.12,0.048,1.467,0.031,2.588,0.004c0.604-0.014,1.265,0.951,1.264,1.604
			c-0.015,7.294,0,13.811-0.021,21.105c-0.004,1.207-1.175,2.317-2.389,2.403c-0.074,0.006-0.149,0.002-0.225,0.004
			c-4.164,0.124-4.251,0.026-5.748-4.709c-1.158-3.665-2.376-7.311-3.582-10.961c-0.134-0.406-0.368-0.778-0.682-1.429
			c-0.773,2.31-1.458,4.348-2.139,6.387c-1.002,3.005-1.996,6.012-3.012,9.011c-0.104,0.308-0.301,0.607-0.521,0.85
			c-1.213,1.344-5.146,1.26-6.244-0.172c-0.317-0.414-0.56-1.008-0.562-1.521C1.18,23.063,1.174,21.6,1.17,20.137
			c-0.004-1.443-0.006-2.885-0.008-4.328c-0.001-1.438-0.001-2.876-0.001-4.314c0-1.45,0.001-2.9,0.002-4.35
			c0.001-0.857-0.05-1.713-0.077-2.57c-0.023-0.72-0.081-1.31,0.274-1.965C1.499,2.355,1.717,2.026,1.968,1.959z"/>
		<path fill="#FFFFFF" stroke="#FFFFFF" stroke-miterlimit="10" d="M5.003,28.244c-1.826,0-3.36-0.578-4.103-1.547
			c-0.48-0.625-0.78-1.456-0.783-2.166c-0.007-1.464-0.013-2.928-0.016-4.392c-0.004-1.443-0.006-2.887-0.008-4.33
			c-0.001-1.439-0.001-2.877-0.001-4.316c0-1.45,0.001-2.9,0.003-4.351c0-0.566-0.022-1.126-0.046-1.719
			C0.038,5.152,0.027,4.88,0.019,4.608l-0.006-0.18C-0.013,3.739-0.042,2.956,0.421,2.1c0.354-0.654,0.768-1.039,1.268-1.173
			C2.251,0.775,2.8,0.755,3.264,0.755c0.127,0,0.254,0.001,0.381,0.003C3.749,0.76,3.853,0.761,3.956,0.761h0.101
			c0.515,0.001,1.157,0.002,1.777,0.225c1.067,0.385,1.758,1.417,1.76,2.63c0,1.179,0,2.272,0,3.345c0,0.373,0,0.743,0,1.113
			c0.039-0.12,0.077-0.239,0.116-0.359c0.432-1.332,0.877-2.709,1.337-4.061c0.592-1.74,1.89-2.692,3.752-2.756
			c0.249-0.009,0.511-0.013,0.803-0.013c0.275,0,0.549,0.004,0.824,0.009c2.143,0.038,3.399,0.957,4.073,2.981
			c0.464,1.395,0.925,2.808,1.378,4.202c0.001-1.485-0.003-2.972-0.027-4.554c-0.011-0.72,0.255-1.393,0.749-1.894
			c0.502-0.51,1.179-0.779,1.905-0.749c0.948,0.041,1.338,0.033,2.225,0.011l0.332-0.007c0.502,0,0.992,0.226,1.418,0.652
			c0.549,0.55,0.902,1.344,0.901,2.023c-0.007,3.319-0.008,6.479-0.008,9.624c-0.001,3.691-0.001,7.507-0.013,11.482
			c-0.005,1.719-1.585,3.34-3.382,3.467c-0.064,0.004-0.13,0.006-0.195,0.006h-0.075c-0.474,0.014-0.974,0.027-1.409,0.027
			c-3.655,0-4.092-1.381-5.389-5.482c-0.971-3.074-2.003-6.191-3.001-9.205l-0.145-0.438c-0.42,1.255-0.822,2.455-1.223,3.656
			c-0.286,0.858-0.572,1.717-0.857,2.575c-0.703,2.111-1.429,4.295-2.156,6.439c-0.181,0.534-0.502,0.961-0.741,1.224
			C7.72,28.117,5.786,28.244,5.003,28.244z M23.748,26l0.035,1.069V26c0.015,0,0.03,0,0.044,0c0.689-0.049,1.393-0.726,1.395-1.34
			c0.012-3.973,0.013-7.787,0.013-11.477c0-3.146,0.001-6.307,0.008-9.629c-0.007-0.134-0.169-0.415-0.296-0.53l-0.163,0.004
			c-0.451,0.011-0.776,0.02-1.12,0.02c-0.361,0-0.736-0.009-1.25-0.031l-0.019,0c-0.106,0-0.198,0.038-0.271,0.113
			c-0.089,0.089-0.136,0.218-0.134,0.36c0.038,2.547,0.028,4.842,0.018,7.271L22,12.324c-0.001,0.355-0.042,0.683-0.082,1
			c-0.016,0.126-0.031,0.251-0.043,0.377l-0.167,1.702l-1.457-0.896c-0.596-0.367-0.801-0.826-0.903-1.139
			c-0.329-1.007-0.655-2.015-0.982-3.022C17.75,8.445,17.112,6.478,16.47,4.55c-0.385-1.156-0.852-1.497-2.082-1.518
			c-0.262-0.004-0.524-0.008-0.786-0.008c-0.267,0-0.505,0.003-0.729,0.011c-0.975,0.033-1.497,0.412-1.802,1.308
			c-0.455,1.336-0.898,2.706-1.327,4.031c-0.24,0.743-0.48,1.485-0.724,2.226c-0.251,0.766-0.509,1.529-0.767,2.293l-0.622,1.85
			l-2.034-0.3L5.542,13.58c-0.009-0.129-0.02-0.257-0.029-0.386c-0.025-0.306-0.051-0.623-0.052-0.956
			C5.456,10.35,5.456,8.681,5.456,6.961c0-1.072,0-2.165-0.001-3.343c0-0.239-0.091-0.528-0.347-0.62
			C4.838,2.901,4.439,2.9,4.054,2.9H3.949c-0.11,0-0.221-0.002-0.333-0.003C3.214,2.891,2.793,2.879,2.4,2.956
			c-0.025,0.036-0.058,0.087-0.097,0.16C2.125,3.446,2.127,3.75,2.149,4.351l0.007,0.189c0.008,0.266,0.019,0.532,0.03,0.797
			c0.024,0.588,0.048,1.197,0.047,1.807c-0.001,1.45-0.001,2.9-0.002,4.35c0,1.438,0,2.875,0.001,4.314
			c0.001,1.441,0.003,2.883,0.008,4.325c0.004,1.463,0.009,2.925,0.016,4.388c0.001,0.246,0.148,0.623,0.342,0.875
			c0.271,0.353,1.184,0.71,2.405,0.71c1.134,0,1.934-0.313,2.197-0.604c0.143-0.158,0.253-0.332,0.302-0.477
			c0.725-2.139,1.45-4.319,2.152-6.428c0.285-0.859,0.572-1.719,0.858-2.577c0.453-1.358,0.908-2.715,1.39-4.152l1.583-4.726
			l1.143,2.364c0.105,0.218,0.201,0.404,0.287,0.569c0.179,0.347,0.334,0.646,0.448,0.99l0.577,1.742
			c1,3.021,2.034,6.144,3.01,9.232c1.259,3.982,1.261,3.99,3.339,3.99c0.004,0,0.007,0,0.011,0c0.405,0,0.888-0.014,1.348-0.028
			C23.681,26,23.714,26,23.748,26z"/>
	</g>
	<g>
		<path fill-rule="evenodd" clip-rule="evenodd" fill="#FFFFFF" stroke="#FFFFFF" stroke-miterlimit="10" d="M105.64,14.47
			c0-2.172,0.063-4.347-0.016-6.516c-0.09-2.488,1.172-4.106,3.115-5.404c0.92-0.614,1.895-0.815,2.967-0.801
			c1.77,0.023,3.541,0.063,5.309-0.007c2.51-0.1,3.9,1.26,5.15,3.208c0.598,0.931,0.826,1.954,0.744,3.067
			c-0.094,1.24-1.367,2.385-2.578,1.552c-0.813-0.56-0.68-0.885-1.076-1.682c-0.438-0.885-1.648-1.401-2.6-1.439
			c-1.465-0.06-3.133,0.007-4.598,0.103c-0.732,0.048-1.162,0.588-1.182,1.311c-0.033,1.257-0.023,1.741,0.029,2.999
			c0.049,1.231,0.459,1.701,1.656,1.82c0.557,0.056,6.574-0.012,7.129,0.059c1.172,0.149,1.723,0.957,1.494,2.104
			c-0.113,0.575-1.043,1.237-1.859,1.286c-0.588,0.035-6.234,0.001-6.824,0.031c-1.02,0.051-1.582,0.518-1.627,1.517
			c-0.059,1.283-0.068,2.576,0.029,3.856c0.1,1.346,0.699,1.852,2.029,1.885c1.018,0.027,1.648,0.025,2.668-0.006
			c1.201-0.036,3.418-0.674,3.555-1.881c0.053-0.457,0.191-0.893,0.313-1.336c0.111-0.414,0.23-0.872,0.664-1.06
			c0.77-0.335,1.57-0.319,2.188,0.273c2.025,1.94,0.102,5.317-1.705,6.618c-0.541,0.391-1.146,0.734-1.762,1
			c-0.471,0.203-1.049,0.214-1.58,0.221c-1.93,0.024-3.859-0.006-5.791,0.014c-2.473,0.025-3.992-1.395-5.17-3.35
			c-0.557-0.927-0.707-1.932-0.686-3.008C105.671,18.76,105.64,16.615,105.64,14.47z"/>
		<path fill="#FFFFFF" stroke="#FFFFFF" stroke-miterlimit="10" d="M111.415,28.332c-3.309,0-5.02-2.209-6.02-3.869
			c-0.602-1-0.867-2.139-0.836-3.58c0.031-1.504,0.023-3.041,0.018-4.527c-0.004-0.629-0.006-1.258-0.006-1.886
			c0-0.669,0.006-1.337,0.012-2.006c0.014-1.47,0.025-2.99-0.027-4.471c-0.094-2.622,1.047-4.634,3.59-6.331
			c0.99-0.661,2.119-0.982,3.457-0.982l0.799,0.01c0.779,0.011,1.586,0.023,2.375,0.023c0.818,0,1.537-0.013,2.195-0.039
			c3.207-0.129,4.881,1.808,6.094,3.698c0.705,1.1,1.012,2.353,0.908,3.725c-0.117,1.558-1.367,2.826-2.785,2.826
			c-0.508,0-1.014-0.164-1.463-0.472c-0.793-0.546-1.018-1.027-1.227-1.6c-0.057-0.158-0.111-0.308-0.201-0.488
			c-0.213-0.43-0.986-0.818-1.686-0.846c-1.197-0.048-2.711-0.015-4.484,0.101c-0.092,0.006-0.176,0.012-0.184,0.272
			c-0.031,1.215-0.023,1.667,0.027,2.926c0.031,0.734,0.068,0.738,0.697,0.801c0.225,0.019,1.699,0.019,2.186,0.019l2.002-0.001
			c2.209,0,2.748,0.015,2.969,0.043c1.096,0.141,1.689,0.677,1.996,1.102c0.443,0.615,0.586,1.4,0.412,2.271
			c-0.234,1.178-1.688,2.075-2.846,2.145c-0.273,0.017-1.303,0.019-2.988,0.019h-1.35c-0.73,0-2.25,0-2.494,0.013
			c-0.592,0.03-0.598,0.167-0.613,0.499c-0.066,1.436-0.059,2.619,0.027,3.726c0.055,0.73,0.139,0.876,0.99,0.897
			c1.033,0.027,1.557,0.027,2.607-0.006c1.154-0.035,2.436-0.619,2.527-0.938c0.051-0.447,0.162-0.851,0.271-1.239
			c0.021-0.083,0.045-0.167,0.068-0.249c0.139-0.518,0.369-1.371,1.271-1.764c0.471-0.203,0.939-0.307,1.396-0.307
			c0.742,0,1.418,0.272,1.957,0.789c0.861,0.826,1.271,1.921,1.184,3.166c-0.148,2.118-1.66,4.124-3.004,5.092
			c-0.602,0.434-1.281,0.819-1.963,1.115c-0.676,0.29-1.404,0.3-1.99,0.307c-1.01,0.014-2.02,0.012-3.029,0.009
			c-0.922-0.002-1.842-0.004-2.764,0.006L111.415,28.332z M111.603,2.818c-0.926,0-1.627,0.191-2.27,0.621
			c-1.916,1.28-2.707,2.619-2.641,4.477c0.055,1.528,0.041,3.073,0.029,4.566c-0.006,0.663-0.012,1.325-0.012,1.987
			c0,0.625,0.002,1.251,0.006,1.876c0.006,1.5,0.014,3.051-0.02,4.581c-0.021,1.035,0.143,1.786,0.533,2.433
			c1.193,1.986,2.445,2.834,4.186,2.834l0.055-0.001c0.932-0.01,1.861-0.007,2.791-0.005c1,0.002,2,0.004,3-0.009
			c0.395-0.005,0.885-0.011,1.166-0.133c0.543-0.235,1.084-0.54,1.564-0.887c0.969-0.698,2.027-2.202,2.119-3.507
			c0.043-0.607-0.131-1.088-0.531-1.472c-0.141-0.135-0.287-0.195-0.477-0.195c-0.143,0-0.309,0.036-0.484,0.105
			c-0.041,0.087-0.088,0.264-0.117,0.375c-0.025,0.097-0.051,0.186-0.076,0.274c-0.09,0.324-0.174,0.629-0.207,0.913
			c-0.232,2.038-3.189,2.785-4.586,2.829c-1.092,0.032-1.652,0.033-2.729,0.005c-1.895-0.05-2.928-1.017-3.066-2.874
			c-0.09-1.194-0.1-2.461-0.031-3.985c0.07-1.53,1.033-2.455,2.643-2.536c0.248-0.013,1.143-0.016,2.602-0.016h1.35
			c0.844,0,2.598,0,2.861-0.015c0.357-0.021,0.779-0.315,0.885-0.472c0.043-0.249,0.021-0.446-0.061-0.56
			c-0.111-0.155-0.381-0.211-0.531-0.229c-0.268-0.027-2.096-0.027-2.697-0.027l-2.002,0.001c-1.768,0-2.207-0.01-2.398-0.029
			c-1.715-0.171-2.547-1.074-2.619-2.842c-0.051-1.248-0.064-1.761-0.029-3.07c0.035-1.301,0.932-2.267,2.18-2.349
			c1.854-0.121,3.438-0.155,4.711-0.104c1.232,0.05,2.857,0.708,3.516,2.033c0.141,0.286,0.227,0.517,0.293,0.703
			c0.123,0.335,0.137,0.37,0.432,0.573c0.092,0.064,0.176,0.096,0.25,0.096c0.26,0,0.619-0.399,0.654-0.848
			c0.068-0.911-0.121-1.699-0.578-2.409c-1.326-2.068-2.441-2.786-4.209-2.717c-0.686,0.027-1.432,0.04-2.279,0.04
			c-0.805,0-1.619-0.011-2.406-0.022L111.603,2.818z"/>
	</g>
	<g>
		<path fill="#FFFFFF" stroke="#FFFFFF" stroke-miterlimit="10" d="M64.502,19.238c-0.042,0.302-0.183,0.555-0.421,0.76
			c-0.236,0.205-0.518,0.286-0.84,0.242c-0.303-0.043-0.556-0.188-0.76-0.436c-0.205-0.248-0.287-0.523-0.243-0.825l2.005-17.823
			c0.045-0.301,0.185-0.555,0.421-0.76c0.237-0.205,0.507-0.285,0.809-0.242s0.556,0.183,0.761,0.42
			c0.203,0.237,0.285,0.517,0.242,0.84L64.502,19.238z M63.661,27.874c-0.043,0.302-0.188,0.55-0.437,0.744
			c-0.247,0.194-0.522,0.269-0.825,0.227c-0.322-0.044-0.582-0.183-0.776-0.421c-0.194-0.237-0.27-0.507-0.227-0.809l0.162-1.132
			c0.043-0.323,0.184-0.582,0.42-0.776c0.237-0.193,0.518-0.27,0.841-0.227c0.302,0.043,0.55,0.188,0.743,0.437
			c0.195,0.248,0.271,0.523,0.228,0.825L63.661,27.874z"/>
	</g>
</g>
</svg>
